<svg xmlns="http://www.w3.org/2000/svg" width="581.8949" height="446.9673" viewBox="0 0 153.9597 118.2601" class="mainlogo"><path style="line-height:1.25;-inkscape-font-specification:'sans-serif, Normal';font-variant-ligatures:normal;font-variant-caps:normal;font-variant-numeric:normal;font-feature-settings:normal;text-align:start" d="M97.8959-.5011h9.1063q10.8668 0 17.6662 6.0709 6.7386 6.01 6.7386 17.4233v9.0455q0 10.2598 5.0388 16.027 5.0388 5.828 15.42 5.828h3.096v9.4706h-3.096q-10.3812 0-15.42 5.7673-5.0388 5.828-5.0388 16.0878v9.0455q0 11.4132-6.7386 17.4233-6.7994 6.0709-17.6662 6.0709h-9.1063v-8.3778h6.9208q8.2563 0 12.0203-3.8246 3.7032-3.8247 3.7032-12.3238v-10.624q0-8.4385 4.6745-14.2058 4.6746-5.7066 12.9916-9.0455v-1.457q-8.317-3.339-12.9916-9.1063-4.6745-5.7066-4.6745-14.145v-10.624q0-8.4993-3.7032-12.3239-3.764-3.8246-12.0203-3.8246h-6.9208z" font-weight="400" font-size="57.8538" font-family="sans-serif" letter-spacing="0" word-spacing="0" fill="#e5e5e3"/><path style="line-height:1.25;-inkscape-font-specification:'sans-serif, Normal';font-variant-ligatures:normal;font-variant-caps:normal;font-variant-numeric:normal;font-feature-settings:normal;text-align:start" d="M58.0682 117.759H48.962q-10.8668 0-17.6662-6.0709-6.7386-6.0101-6.7386-17.4233v-9.0455q0-10.2598-5.0388-16.027-5.0388-5.8281-15.42-5.8281H1.0022v-9.4705h3.0961q10.3812 0 15.42-5.7673 5.0388-5.828 5.0388-16.0878v-9.0455q0-11.4132 6.7386-17.4234Q38.0952-.5011 48.9619-.5011h9.1062v8.3778h-6.9207q-8.2564 0-12.0203 3.8246-3.7032 3.8246-3.7032 12.3238v10.624q0 8.4385-4.6746 14.2058-4.6745 5.7066-12.9916 9.0455v1.457q8.317 3.339 12.9916 9.1063 4.6746 5.7066 4.6746 14.145v10.624q0 8.4992 3.7032 12.3239 3.764 3.8246 12.0203 3.8246h6.9207z" font-weight="400" font-size="57.8538" font-family="sans-serif" letter-spacing="0" word-spacing="0" fill="#e5e5e3"/><path style="line-height:1.25;-inkscape-font-specification:'sans-serif, Normal';font-variant-ligatures:normal;font-variant-caps:normal;font-variant-numeric:normal;font-feature-settings:normal;text-align:start" d="M91.8216 64.2832q-1.378-.0475-2.8984-.1424-1.473-.1425-3.5161-.19-4.4664-.095-9.6931.3801-1.1879 4.0863-3.9438 10.0732-2.7083 5.9394-5.3692 10.0732-5.7018 8.8378-11.5936 10.9285-.8553.3326-1.7581.3326-.8553 0-1.568-.3326-.7127-.2851-1.1879-.7603-.9978-.9028-.9978-1.9956t.7127-1.6155q6.7472-4.894 13.8744-24.6603l-1.0453.285q-.5227.1425-.9028.2851-.38.1425-.9028.1425-.4751 0-1.0928-.285-.5702-.3327-1.0453-.7603-1.0454-.9503-1.0454-1.8531 0-.9028.8078-1.663.8553-.8078 2.0906-1.5205 2.2808-1.3304 5.7494-2.4708l2.5658-7.9825q4.514-14.017 8.6477-19.4337-3.8962-.3326-5.7493-.3326-5.6068 0-8.0776 1.568-2.4232 1.568-3.421 3.421-.9503 1.8056-.9979 2.5184-.1425 1.3304-.8552 1.7105-.7128.3326-1.758.3326-.9979 0-2.0908-.7127-1.0928-.7602-1.8055-1.9006-1.5205-2.3282-1.1879-5.2266.3326-2.946 1.9006-5.0367 1.6155-2.1381 3.8012-3.4686 4.0388-2.4707 8.5052-2.4707 4.514 0 8.5052.4751 4.0388.4276 8.03.9978 10.596 1.4255 13.4943 1.4255 2.8985 0 4.2764-.3326 1.4255-.3326 2.4233-.9978.9978-.6653 1.3779-.8553.4276-.2376 1.3304-.2376 1.4255 0 1.2354 2.1857-.19 2.1382-1.0453 3.7062-.8553 1.5205-2.2332 2.5183-2.8034 2.0431-7.1273 2.0431t-10.5008-.5701q-1.568 3.1835-2.9935 8.3626l-4.3714 15.68q4.4665-.7127 6.7947-.7127 2.3758 0 3.8962.4751 1.5205.4752 2.7084 1.3304 2.7559 1.8531 2.7084 4.5615-.0475 2.7083-2.6609 2.7083z" font-weight="400" font-size="57.8538" font-family="sans-serif" letter-spacing="0" word-spacing="0" fill="#e5e5e3"/></svg>